<?xml version="1.0" encoding="UTF-8"?>
<!-- Do not edit this file with editors other than draw.io -->
<!DOCTYPE svg PUBLIC "-//W3C//DTD SVG 1.1//EN" "http://www.w3.org/Graphics/SVG/1.1/DTD/svg11.dtd">
<svg xmlns="http://www.w3.org/2000/svg" xmlns:xlink="http://www.w3.org/1999/xlink" version="1.1" width="1251px" height="211px" viewBox="-0.5 -0.5 1251 211"
     style="background-color: rgb(255, 255, 255);"><defs/><g><path d="M 390 25 L 500 25 L 500 73.63" fill="none" stroke="rgb(0, 0, 0)" stroke-miterlimit="10" pointer-events="stroke"/><path d="M 500 78.88 L 496.5 71.88 L 500 73.63 L 503.5 71.88 Z" fill="rgb(0, 0, 0)" stroke="rgb(0, 0, 0)" stroke-miterlimit="10" pointer-events="all"/><path d="M 250 0 L 390 0 L 390 50 L 250 50 L 250 40 L 240 40 L 240 30 L 250 30 L 250 20 L 240 20 L 240 10 L 250 10 Z" fill="rgb(255, 255, 255)" stroke="rgb(0, 0, 0)" stroke-miterlimit="10" pointer-events="all"/><path d="M 250 10 L 260 10 L 260 20 L 250 20 M 250 30 L 260 30 L 260 40 L 250 40" fill="none" stroke="rgb(0, 0, 0)" stroke-miterlimit="10" pointer-events="all"/><g fill="rgb(0, 0, 0)" font-family="Helvetica" text-anchor="middle" font-size="12px"><text x="324.5" y="22.5">MapTo</text><text x="324.5" y="36.5">PartTypeInformation</text></g><path d="M 390 184 L 500 184 L 500 136.37" fill="none" stroke="rgb(0, 0, 0)" stroke-miterlimit="10" pointer-events="stroke"/><path d="M 500 131.12 L 503.5 138.12 L 500 136.37 L 496.5 138.12 Z" fill="rgb(0, 0, 0)" stroke="rgb(0, 0, 0)" stroke-miterlimit="10" pointer-events="all"/><path d="M 240 159 L 390 159 L 390 209 L 240 209 L 240 199 L 230 199 L 230 189 L 240 189 L 240 179 L 230 179 L 230 169 L 240 169 Z" fill="rgb(255, 255, 255)" stroke="rgb(0, 0, 0)" stroke-miterlimit="10" pointer-events="all"/><path d="M 240 169 L 250 169 L 250 179 L 240 179 M 240 189 L 250 189 L 250 199 L 240 199" fill="none" stroke="rgb(0, 0, 0)" stroke-miterlimit="10" pointer-events="all"/><g fill="rgb(0, 0, 0)" font-family="Helvetica" text-anchor="middle" font-size="12px"><text x="319.5" y="181.5">MapFrom</text><text x="319.5" y="195.5">PartTypeInformation</text></g><path d="M 10 159 L 150 159 L 150 209 L 10 209 L 10 199 L 0 199 L 0 189 L 10 189 L 10 179 L 0 179 L 0 169 L 10 169 Z" fill="rgb(255, 255, 255)" stroke="rgb(0, 0, 0)" stroke-miterlimit="10" pointer-events="all"/><path d="M 10 169 L 20 169 L 20 179 L 10 179 M 10 189 L 20 189 L 20 199 L 10 199" fill="none" stroke="rgb(0, 0, 0)" stroke-miterlimit="10" pointer-events="all"/><g fill="rgb(0, 0, 0)" font-family="Helvetica" text-anchor="middle" font-size="12px"><text x="84.5" y="181.5">Create</text><text x="84.5" y="195.5">PartTypeInformation</text></g><path d="M 130 184 L 240 184" fill="none" stroke="rgb(0, 0, 0)" stroke-miterlimit="10" pointer-events="all"/><path d="M 570 105 L 633.63 105" fill="none" stroke="rgb(0, 0, 0)" stroke-miterlimit="10" pointer-events="stroke"/><path d="M 638.88 105 L 631.88 108.5 L 633.63 105 L 631.88 101.5 Z" fill="rgb(0, 0, 0)" stroke="rgb(0, 0, 0)" stroke-miterlimit="10" pointer-events="all"/><path d="M 440 80 L 570 80 L 570 130 L 440 130 L 440 120 L 430 120 L 430 110 L 440 110 L 440 100 L 430 100 L 430 90 L 440 90 Z" fill="rgb(255, 255, 255)" stroke="rgb(0, 0, 0)" stroke-miterlimit="10" pointer-events="all"/><path d="M 440 90 L 450 90 L 450 100 L 440 100 M 440 110 L 450 110 L 450 120 L 440 120" fill="none" stroke="rgb(0, 0, 0)" stroke-miterlimit="10" pointer-events="all"/><g fill="rgb(0, 0, 0)" font-family="Helvetica" text-anchor="middle" font-size="12px"><text x="509.5" y="109.5">GenerateUuId</text></g><path d="M 790 105 L 873.63 105" fill="none" stroke="rgb(0, 0, 0)" stroke-miterlimit="10" pointer-events="stroke"/><path d="M 878.88 105 L 871.88 108.5 L 873.63 105 L 871.88 101.5 Z" fill="rgb(0, 0, 0)" stroke="rgb(0, 0, 0)" stroke-miterlimit="10" pointer-events="all"/><path d="M 650 80 L 790 80 L 790 130 L 650 130 L 650 120 L 640 120 L 640 110 L 650 110 L 650 100 L 640 100 L 640 90 L 650 90 Z" fill="rgb(255, 255, 255)" stroke="rgb(0, 0, 0)" stroke-miterlimit="10" pointer-events="all"/><path d="M 650 90 L 660 90 L 660 100 L 650 100 M 650 110 L 660 110 L 660 120 L 650 120" fill="none" stroke="rgb(0, 0, 0)" stroke-miterlimit="10" pointer-events="all"/><g fill="rgb(0, 0, 0)" font-family="Helvetica" text-anchor="middle" font-size="12px"><text x="724.5" y="102.5">DigitalTwins</text><text x="724.5" y="116.5">PartTypeInformation</text></g><path d="M 1020 105 L 1103.63 105" fill="none" stroke="rgb(0, 0, 0)" stroke-miterlimit="10" pointer-events="stroke"/><path d="M 1108.88 105 L 1101.88 108.5 L 1103.63 105 L 1101.88 101.5 Z" fill="rgb(0, 0, 0)" stroke="rgb(0, 0, 0)" stroke-miterlimit="10" pointer-events="all"/><path d="M 890 80 L 1020 80 L 1020 130 L 890 130 L 890 120 L 880 120 L 880 110 L 890 110 L 890 100 L 880 100 L 880 90 L 890 90 Z" fill="rgb(255, 255, 255)" stroke="rgb(0, 0, 0)" stroke-miterlimit="10" pointer-events="all"/><path d="M 890 90 L 900 90 L 900 100 L 890 100 M 890 110 L 900 110 L 900 120 L 890 120" fill="none" stroke="rgb(0, 0, 0)" stroke-miterlimit="10" pointer-events="all"/><g fill="rgb(0, 0, 0)" font-family="Helvetica" text-anchor="middle" font-size="12px"><text x="959.5" y="102.5">EDC</text><text x="959.5" y="116.5">PartTypeInformation</text></g><path d="M 1120 80 L 1250 80 L 1250 130 L 1120 130 L 1120 120 L 1110 120 L 1110 110 L 1120 110 L 1120 100 L 1110 100 L 1110 90 L 1120 90 Z" fill="rgb(255, 255, 255)" stroke="rgb(0, 0, 0)" stroke-miterlimit="10" pointer-events="all"/><path d="M 1120 90 L 1130 90 L 1130 100 L 1120 100 M 1120 110 L 1130 110 L 1130 120 L 1120 120" fill="none" stroke="rgb(0, 0, 0)" stroke-miterlimit="10" pointer-events="all"/><g fill="rgb(0, 0, 0)" font-family="Helvetica" text-anchor="middle" font-size="12px"><text x="1189.5" y="102.5">Store</text><text x="1189.5" y="116.5">PartTypeInformation</text></g></g></svg>